# This file uses centimeters as units for non-parametric coordinates.

mtllib Cone.mtl
g default
v -46.385762 165.965928 46.385758
v 46.385762 165.965928 46.385754
v 46.385754 165.965928 -46.385765
v -46.385762 165.965928 -46.385765
v 0.000003 165.965928 65.599365
v 65.599369 165.965928 -0.000006
v -0.000003 165.965928 -65.599372
v -65.599369 165.965928 -0.000003
v 0.000000 165.965928 -0.000004
v 0.000000 -2.569157 0.000000
vt 0.146447 0.146447
vt 0.853553 0.146447
vt 0.853553 0.853553
vt 0.146447 0.853553
vt 0.500000 0.000000
vt 1.000000 0.500000
vt 0.500000 1.000000
vt 0.000000 0.500000
vt 0.500000 0.500000
vt 0.000000 0.000000
vt 1.000000 0.000000
vt 0.499967 1.014849
vt 0.000000 0.000000
vt 1.000000 0.000000
vt 0.500033 1.014849
vt 0.000000 0.000000
vt 1.000000 0.000000
vt 0.499980 1.014849
vt 0.000000 0.000000
vt 1.000000 0.000000
vt 0.500027 1.014849
vt 0.000000 0.000000
vt 1.000000 0.000000
vt 0.499968 1.014849
vt 0.000000 0.000000
vt 1.000000 0.000000
vt 0.500042 1.014849
vt 0.000000 0.000000
vt 1.000000 0.000000
vt 0.499957 1.014849
vt 0.000000 0.000000
vt 1.000000 0.000000
vt 0.500033 1.014849
vn 0.000000 1.000000 0.000000
vn 0.000000 1.000000 0.000000
vn 0.000000 1.000000 0.000000
vn 0.000000 1.000000 0.000000
vn 0.000000 1.000000 0.000000
vn 0.000000 1.000000 0.000000
vn 0.000000 1.000000 0.000000
vn 0.000000 1.000000 0.000000
vn 0.000000 1.000000 0.000000
vn -0.658950 -0.362725 0.658950
vn -0.931896 -0.362725 0.000000
vn 0.000000 -1.000000 0.000000
vn 0.000000 -0.362724 0.931896
vn 0.658950 -0.362725 0.658950
vn 0.931896 -0.362725 -0.000000
vn 0.658950 -0.362725 -0.658950
vn 0.000000 -0.362725 -0.931896
vn -0.658950 -0.362725 -0.658950
s 1
g pDisc3
usemtl initialShadingGroup
f 8/8/1 1/1/2 5/5/3 9/9/4
f 5/5/3 2/2/5 6/6/6 9/9/4
f 6/6/6 3/3/7 7/7/8 9/9/4
f 7/7/8 4/4/9 8/8/1 9/9/4
s 2
f 1/10/10 8/11/11 10/12/12
f 5/13/13 1/14/10 10/15/12
f 2/16/14 5/17/13 10/18/12
f 6/19/15 2/20/14 10/21/12
f 3/22/16 6/23/15 10/24/12
f 7/25/17 3/26/16 10/27/12
f 4/28/18 7/29/17 10/30/12
f 8/31/11 4/32/18 10/33/12
